<svg width="310" height="158" viewBox="0 0 310 158" fill="none" xmlns="http://www.w3.org/2000/svg">
<path d="M81.1969 144L5.99688 96.2C4.66354 95.4 3.46354 94.2 2.39688 92.6C1.33021 90.8667 0.796875 88.8667 0.796875 86.6C0.796875 83.6667 1.39688 81.5333 2.59688 80.2C3.79688 78.8667 4.99688 77.8667 6.19688 77.2L81.1969 29.4C83.0635 28.2 84.7969 27.3333 86.3969 26.8C87.9969 26.1333 89.6635 26.2 91.3969 27C93.1302 27.6667 94.9969 29.5333 96.9969 32.6C98.8636 35.5333 99.7969 37.9333 99.7969 39.8C99.9302 41.6667 99.3969 43.2667 98.1969 44.6C96.9969 45.9333 95.5302 47.2 93.7969 48.4L32.7969 86.8L93.7969 125.2C95.6635 126.267 97.1302 127.467 98.1969 128.8C99.3969 130 99.9302 131.6 99.7969 133.6C99.7969 135.467 98.8636 137.867 96.9969 140.8C95.1302 143.733 93.3302 145.533 91.5969 146.2C89.8635 147 88.1302 147.133 86.3969 146.6C84.7969 146.067 83.0635 145.2 81.1969 144ZM114.819 154.6C110.952 152.6 108.685 150.467 108.019 148.2C107.352 146.067 108.085 142.867 110.219 138.6L175.819 8.39999C177.285 5.46666 178.685 3.39999 180.019 2.19999C181.485 0.866659 183.152 0.266658 185.019 0.39999C187.019 0.39999 189.285 1.06666 191.819 2.39999C194.619 3.73333 196.552 5.13333 197.619 6.59999C198.685 7.93333 199.085 9.59999 198.819 11.6C198.552 13.4667 197.685 15.8667 196.219 18.8L130.419 148.4C128.419 152.8 126.285 155.333 124.019 156C121.885 156.8 118.819 156.333 114.819 154.6ZM228.781 144C227.048 145.2 225.315 146.067 223.581 146.6C221.848 147.133 220.115 147 218.381 146.2C216.781 145.533 214.981 143.733 212.981 140.8C211.115 137.867 210.115 135.467 209.981 133.6C209.981 131.6 210.515 130 211.581 128.8C212.781 127.467 214.315 126.267 216.181 125.2L277.181 86.8L216.181 48.4C214.448 47.2 212.981 45.9333 211.781 44.6C210.581 43.2667 210.048 41.6667 210.181 39.8C210.315 37.9333 211.248 35.5333 212.981 32.6C214.981 29.5333 216.848 27.6667 218.581 27C220.315 26.2 221.981 26.1333 223.581 26.8C225.315 27.3333 227.048 28.2 228.781 29.4L303.781 77.2C304.981 77.8667 306.181 78.8667 307.381 80.2C308.581 81.5333 309.181 83.6667 309.181 86.6C309.181 88.8667 308.648 90.8667 307.581 92.6C306.515 94.2 305.315 95.4 303.981 96.2L228.781 144Z" fill="#2CD445"/>
</svg>
